<svg height="512" viewBox="0 0 64 64" width="512" xmlns="http://www.w3.org/2000/svg"><path d="m6 32h6v-2h-4v-6h4v-2h-6z"/><path d="m16.2 22-2.174 9.783 1.952.434.935-4.217h4.174l.937 4.217 1.952-.434-2.176-9.783zm1.16 4 .444-2h2.4l.444 2z"/><path d="m26 28h4v2h-4v2h6v-6h-4v-2h4v-2h-6z"/><path d="m34 22h2v10h-2z"/><path d="m46 30h-.382l-4-8h-3.618v10h2v-8h.382l4 8h3.618v-10h-2z"/><path d="m50 32h8v-10h-8zm2-8h4v6h-4z"/><path d="m53.071 13.343 3.636-3.636a1 1 0 0 0 -.576-1.7l-4.986-.661-2.24-4.773a1 1 0 0 0 -1.81 0l-2.24 4.773-4.855.645-4.855-.643-2.24-4.773a1 1 0 0 0 -1.81 0l-2.24 4.773-4.855.643-4.855-.643-2.24-4.773a1 1 0 0 0 -1.81 0l-2.24 4.773-4.986.661a1 1 0 0 0 -.576 1.7l3.636 3.636-.776 4.655h-8.153v43a1 1 0 0 0 1 1h58a1 1 0 0 0 1-1v-43h-8.153zm-31.224 4.657-.776-4.657 2.929-2.929 2.929 2.929-.776 4.657zm16 0-.776-4.657 2.929-2.929 2.929 2.929-.776 4.657zm7.812-8.742a1 1 0 0 0 .774-.566l1.567-3.338 1.567 3.338a1 1 0 0 0 .774.566l3.52.467-2.568 2.568a1 1 0 0 0 -.279.872l.644 3.863-3.143-1.885a1 1 0 0 0 -1.03 0l-3.143 1.885.644-3.863a1 1 0 0 0 -.279-.872l-2.568-2.568zm3.731 8.742h-2.78l1.39-.834zm-19.731-8.742a1 1 0 0 0 .774-.566l1.567-3.338 1.567 3.338a1 1 0 0 0 .774.566l3.52.467-2.568 2.568a1 1 0 0 0 -.279.872l.644 3.863-3.143-1.885a1 1 0 0 0 -1.03 0l-3.143 1.885.644-3.863a1 1 0 0 0 -.279-.872l-2.568-2.568zm3.731 8.742h-2.78l1.39-.834zm-23.251-8.275 3.52-.467a1 1 0 0 0 .774-.566l1.567-3.338 1.567 3.338a1 1 0 0 0 .774.566l3.52.467-2.568 2.568a1 1 0 0 0 -.279.872l.644 3.863-3.143-1.885a1 1 0 0 0 -1.03 0l-3.143 1.885.644-3.863a1 1 0 0 0 -.279-.872zm5.861 7.441 1.39.834h-2.78zm-9 36.834a1 1 0 1 1 1-1 1 1 0 0 1 -1 1zm1 6v-2.779a11.924 11.924 0 0 0 4.182.787 10.213 10.213 0 0 0 3.818-.734v2.726zm9-6a1 1 0 1 1 1-1 1 1 0 0 1 -1 1zm1 6v-4.184a3 3 0 1 0 -2.763-.4 9.069 9.069 0 0 1 -6.444-.024 3 3 0 1 0 -2.793.424v4.184h-2v-24h15v2h-2v6h3v16zm17-16v16h-6v-16zm-16-2v-2h26v2zm24-4h-22v-2h22zm-21 6h5v16h-5zm15 16v-16h5v16zm10-6a1 1 0 1 1 1-1 1 1 0 0 1 -1 1zm1 6v-2.779a11.924 11.924 0 0 0 4.182.787 10.213 10.213 0 0 0 3.818-.734v2.726zm9-6a1 1 0 1 1 1-1 1 1 0 0 1 -1 1zm3-1v7h-2v-4.184a3 3 0 1 0 -2.763-.4 9.062 9.062 0 0 1 -6.444-.025 3 3 0 1 0 -2.793.425v4.184h-2v-16h3v-6h-2v-2h15zm0-19h-56v-14h56z"/></svg>