<svg height="512" viewBox="0 0 64 64" width="512" xmlns="http://www.w3.org/2000/svg"><path d="m47 11a9.01 9.01 0 0 0 -9-9h-20a9.01 9.01 0 0 0 -9 9v27h-3v8h3v16h38v-16h3v-3h4a1 1 0 0 0 1-1v-13.184a3 3 0 1 0 -2 0v12.184h-3v-3h-3zm7 14a1 1 0 1 1 -1 1 1 1 0 0 1 1-1zm-31-1h10v10h-10zm-12-2v-2h34v2zm34-4h-34v-2h34zm-34 6h10v10h-10zm24 0h10v10h-10zm-24-13a7.008 7.008 0 0 1 7-7h20a7.008 7.008 0 0 1 7 7v3h-34zm34 49h-34v-14h34zm3-16h-40v-4h40zm-37-6v-2h34v2z"/><path d="m18 12h20v-6h-20zm2-4h16v2h-16z"/><path d="m28 26a3 3 0 1 0 3 3 3 3 0 0 0 -3-3zm0 4a1 1 0 1 1 1-1 1 1 0 0 1 -1 1z"/><path d="m40 26a3 3 0 1 0 3 3 3 3 0 0 0 -3-3zm0 4a1 1 0 1 1 1-1 1 1 0 0 1 -1 1z"/><path d="m16 26a3 3 0 1 0 3 3 3 3 0 0 0 -3-3zm0 4a1 1 0 1 1 1-1 1 1 0 0 1 -1 1z"/><path d="m39 48h-22v10h22zm-2 8h-18v-6h18z"/><path d="m13 48h2v2h-2z"/><path d="m13 56h2v2h-2z"/><path d="m41 48h2v2h-2z"/><path d="m41 56h2v2h-2z"/><path d="m21 52h14v2h-14z"/></svg>